<?xml version="1.0" encoding="utf-8"?>
<!-- Generator: Adobe Illustrator 24.1.0, SVG Export Plug-In . SVG Version: 6.00 Build 0)  -->
<svg version="1.1" id="Layer_1" xmlns="http://www.w3.org/2000/svg" xmlns:xlink="http://www.w3.org/1999/xlink" x="0px" y="0px"
	 viewBox="0 0 189.95 147.38" style="enable-background:new 0 0 189.95 147.38;" xml:space="preserve">
<style type="text/css">
	.st0{fill:#FFFFFF;}
	.st1{fill:none;}
</style>
<g>
	<path class="st0" d="M189.22,6.61c-0.92-3.12-4.26-3.5-6.17-3.12c-0.84,0.17-1.73,0.44-2.8,1.4c-1.93,1.72-2.13,2.22-2.91,11.05
		c-0.43,4.91-0.95,11.98-1.16,15.73c-0.21,3.74-0.53,9.03-0.72,11.75c-0.19,2.72-0.44,6.76-0.55,8.97
		c-0.22,4.31-1.29,17.92-1.84,23.5c-0.87,8.64-2.15,27.84-2.25,28.98c-0.07,0.82-1.49,13.78-1.22,14.06
		c0.53,0.53,1.33-2.39,2.22-8.1c0.47-3.06,1.29-7.51,1.81-9.89c1.02-4.68,13.13-68.39,14.87-76.06
		C189.76,19.29,190.63,11.36,189.22,6.61z"/>
	<path class="st0" d="M163.61,128.44c-3.09,2.6-3.16,6.31-0.2,9.7c2.83,3.24,10.03-0.87,10.03-5.72
		C173.43,127.41,167.63,125.06,163.61,128.44z"/>
	<path class="st0" d="M39.9,27.3c9.31-4.17,16.18-4.33,25.79-4.92c3.55-0.22,19.26-1.15,33.59-1.26
		c14.33-0.11,27.58-0.37,29.45-0.59c8.71-1.01,22.25-6.53,27.1-11.05c1.92-1.79,6.3-8.29,6.3-9.36c0-0.26-0.49-0.07-1.08,0.42
		c-0.6,0.5-2.89,1.97-5.1,3.27c-2.21,1.3-4.99,3-6.18,3.76c-3.01,1.94-11.16,3.77-21.02,4.71c-4.59,0.44-38.29-0.37-47.92-0.26
		c-21.21,0.24-33.6,2.67-45.89,9c-9.43,4.86-15.48,15.75-14.67,26.42c0.74,9.68,2.76,15.3,7.84,21.81
		c3.93,5.03,13.17,10.73,22.72,14.02C53.44,84.18,52.85,84,56,84.7c1.08,0.24,0.79-0.74-1.05,4.2c-4.55,12.25-8.75,24.5-12.6,31.85
		c-3.22,6.15-4.37,7.48-11.3,14.61c-6.9,7.09-16,10.94-21.67,9c-2.71-0.93-1.75-4.15,0.42-7.16c1.64-2.27,1.75-3.85,1.75-4.9
		c0-2.2-0.61-3.41-1.75-4.55c-0.7-0.7-2.8-1.75-4.9-0.35c-1.46,0.97-3.03,2.21-4.2,6.3C0,136.15,0,137.55,0,139.3
		c0,2.94,1.07,4.37,4.55,6.3c1.04,0.58,3.62,1.27,4.55,1.4c2.45,0.35,3.41,0.44,7.35-0.35c6.34-1.28,11.03-4.47,17.5-10.85
		c5.03-4.96,8.37-8.76,11.55-15.75c3.5-7.7,2.1-4.9,4.2-9.8c1.78-3.78,3.65-9.52,5.95-15.75c2.45-6.65,3.2-8.85,3.5-9.45
		c0.35-0.7,0-0.35,1.29-0.13c1.04,0.18,4.11,0.52,6.76,0.83c1.96,0.23,3.23,0.35,4.06,0.4c1.7,0.11,1.5,0.59,1.42,1.49
		c-0.06,0.68-0.16,2.9-0.24,3.71c-0.35,3.5-0.35,3.5-0.63,11.14c-0.95,25.77,4.48,41.12,17.95,44.54v0c2.92,0.74,8.11,0.3,10.63-0.9
		c1.13-0.54,3.21-1.93,4.61-3.33c2.25-2.25,3.26-3.33,4.2-4.55c3.5-4.55,6.63-10.17,9.45-16.45c1.4-3.12,1.05-2.45,2.41-5.38
		c0.89-1.91,1.27-3.16,1.79-3.02c0.62,0.16,0.99,3.2,1.23,4.14c1.05,3.94,1.52,6.01,2.16,9.37c1.15,6.09,3.16,14.72,3.84,16.54
		c1.13,2.99,3.23,2.63,7.46-2.4c7.35-8.75,4.55-5.25,6.3-7.35c5.47-6.56,7.35-11.9,9.1-24.85c0.32-2.35,0.93-5.73,1.13-8.63
		c0.27-3.97,0.27-5.72,0.27-5.72s1.22-1.25,2.19-2.36c1.36-1.54,2.71-3.59,4.1-6.14c0.89-1.63,1.61-3.48,1.76-5.51
		c0.11-1.51,0.11-2.73,0-4.55c-0.32-5.26-2.35-7.19-5.08-9.35c-0.87-0.68-1.65-1.16-1.75-1.06c-0.1,0.1,1.09,2.09,2.28,4.46
		c1.75,3.5,2.1,3.5,2.45,7c0.48,4.77-1.64,9.14-3.99,11.72c-0.99,1.08-3.01,2.63-3.01,2.63s-1.31-2.2-2.8-4.2
		c-2.69-3.62-5.92-4.53-8.4-4.55c-1.68-0.01-3.85,0-6.26,2.11c-3.15,2.75-2.84,8.04,0.22,11.21c2.46,2.55,8.37,3.02,10.98,2.3
		c2.49-0.69,4.51-2.32,4.51-2.32s-1.05,22.05-5.6,30.45c-4.1,7.57-9.8,11.55-9.8,11.55c-0.01,0.76-0.68-3.65-1.75-10.85
		c-0.36-2.39-1.72-10.22-2.1-12.6c-1.09-6.8-1.83-11.44-2.45-12.25c-0.59-0.77-2.19-0.12-5.93,1.01c-2.4,0.73-3.85,3.17-3.86,6.51
		c-0.01,4.43-1.41,7.88-4.56,14.53c-0.64,1.36-6.2,10.72-7.35,12.25c-2.1,2.8-2.5,3.52-5.68,5.61c-9.62,6.33-16.6-0.3-19.39-18.42
		c-1.26-8.18-1.53-16.18-0.13-29.54c0.79-7.58,1.4-9.1,1.4-9.1s1.4-0.35,2.8-0.7c4.2-1.05,11.07-4.2,15.05-6.3
		c6.65-3.5,12.06-10.88,14.36-14.72c2.09-3.48,3.13-5.47,3.84-7.33c1.88-4.96,2.45-9.67,2.45-13.3c0-3.8-0.66-6.47-2.88-9.47
		c-1.74-2.35-5.17-5.23-12.58-5.39c-9.84-0.21-22.37,5.88-32.14,18.36c-1.37,1.75-2.67,4.04-3.5,5.25c-1.3,1.89-2.86,4.13-5.95,10.5
		c-0.9,1.85-3.15,6.94-4.55,10.85c-1.21,3.38-2.25,6.42-2.78,7.99c-0.37,1.11-0.37,1.11-2.28,0.61C51.04,80.02,37,75.6,32.17,69.49
		c-4.87-6.15-6.27-6.85-6.97-17.7c-0.5-7.69,1.48-11.66,5.25-16.45C34.3,30.45,36.05,29.02,39.9,27.3z M151.78,93.02
		c0,0-5.03,6.14-11.02,2.33c-3.66-2.32-4.76-6.68-2.07-9.73c1.38-1.56,3.24-1.78,5.17-1.56C150.41,84.85,151.78,93.02,151.78,93.02z
		 M99.24,39.65c3.06-4.53,8.21-8.28,11.37-8.28c6.85,0,10.76,7.77,9.23,16.45c-1.19,6.77-4.28,12.79-8.19,17.62
		c-4.24,5.25-9.43,10.08-15.51,12.97C91,80.85,84.7,81.9,84.7,81.9s4.24-20.95,6.88-26.72c0.31-0.68,1.59-3.6,2.84-6.49
		C95.67,45.79,97.84,41.73,99.24,39.65z M60.97,80.73c0.42-1.53,2.83-7.89,3.78-10.38c1.75-4.55,0.6-1.79,1.75-4.55
		c1.75-4.2,3.85-8.05,6.01-11.46c1.78-2.81,1.84-3.24,7.1-9.52c3.14-3.75,5.64-6.29,11.73-10.17c3.85-2.45,7.7-3.5,7.7-3.5
		s-5.6,4.9-9.43,10.44c-5.67,8.19-7.03,12.3-7.48,13.5c-1.5,3.97-3.46,8.72-4.78,13.51c-2.3,8.34-4.2,17.15-3.5,14.35
		c0,0-3.85,0-7.7-0.35C59.52,81.99,60.55,82.25,60.97,80.73z"/>
</g>
<line class="st1" x1="101.85" y1="49" x2="101.5" y2="49.35"/>
</svg>
